<svg width="256" height="256" viewBox="0 0 256 256" fill="none" xmlns="http://www.w3.org/2000/svg">
  <defs>
    <linearGradient id="frameStroke" x1="46" y1="42" x2="216" y2="214" gradientUnits="userSpaceOnUse">
      <stop offset="0" stop-color="#5A5F67"/>
      <stop offset="0.34" stop-color="#272B31"/>
      <stop offset="0.68" stop-color="#0E1116"/>
      <stop offset="1" stop-color="#05070A"/>
    </linearGradient>
    <linearGradient id="frameHighlight" x1="74" y1="58" x2="186" y2="182" gradientUnits="userSpaceOnUse">
      <stop offset="0" stop-color="#6C727C" stop-opacity="0.6"/>
      <stop offset="0.5" stop-color="#F4F7FA" stop-opacity="0.08"/>
      <stop offset="1" stop-color="#0A0C10" stop-opacity="0.2"/>
    </linearGradient>
    <filter id="dropShadow" x="14" y="12" width="228" height="232" filterUnits="userSpaceOnUse" color-interpolation-filters="sRGB">
      <feOffset dy="10"/>
      <feGaussianBlur stdDeviation="10"/>
      <feColorMatrix type="matrix" values="0 0 0 0 0.03 0 0 0 0 0.03 0 0 0 0 0.04 0 0 0 0.28 0"/>
    </filter>
    <path id="brainShell" d="M58 112L77 77L118 51L164 40L201 60L221 89L225 122L213 154L191 182L159 190L138 217L117 188L84 183L59 164L46 139L46 119L58 112Z"/>
    <clipPath id="brainClip">
      <use href="#brainShell"/>
    </clipPath>
  </defs>

  <g filter="url(#dropShadow)">
    <use href="#brainShell" stroke="url(#frameStroke)" stroke-width="5" stroke-linejoin="round"/>
    <use href="#brainShell" stroke="url(#frameHighlight)" stroke-width="1.25" stroke-linejoin="round"/>
  </g>

  <g clip-path="url(#brainClip)">
    <g stroke="url(#frameStroke)" stroke-width="4.1" stroke-linecap="round" stroke-linejoin="round">
      <line x1="58" y1="112" x2="103" y2="79"/>
      <line x1="77" y1="77" x2="118" y2="51"/>
      <line x1="77" y1="77" x2="98" y2="111"/>
      <line x1="92" y1="59" x2="136" y2="68"/>
      <line x1="118" y1="51" x2="136" y2="68"/>
      <line x1="136" y1="68" x2="164" y2="40"/>
      <line x1="136" y1="68" x2="123" y2="112"/>
      <line x1="164" y1="40" x2="201" y2="60"/>
      <line x1="164" y1="40" x2="157" y2="96"/>
      <line x1="201" y1="60" x2="221" y2="89"/>
      <line x1="201" y1="60" x2="194" y2="111"/>
      <line x1="221" y1="89" x2="225" y2="122"/>
      <line x1="194" y1="111" x2="225" y2="122"/>
      <line x1="157" y1="96" x2="194" y2="111"/>
      <line x1="157" y1="96" x2="123" y2="112"/>
      <line x1="123" y1="112" x2="98" y2="111"/>
      <line x1="98" y1="111" x2="71" y2="131"/>
      <line x1="71" y1="131" x2="46" y2="139"/>
      <line x1="58" y1="112" x2="46" y2="139"/>
      <line x1="71" y1="131" x2="84" y2="183"/>
      <line x1="98" y1="111" x2="117" y2="188"/>
      <line x1="123" y1="112" x2="138" y2="217"/>
      <line x1="157" y1="96" x2="159" y2="190"/>
      <line x1="194" y1="111" x2="191" y2="182"/>
      <line x1="213" y1="154" x2="191" y2="182"/>
      <line x1="213" y1="154" x2="179" y2="145"/>
      <line x1="179" y1="145" x2="159" y2="190"/>
      <line x1="179" y1="145" x2="123" y2="112"/>
      <line x1="179" y1="145" x2="194" y2="111"/>
      <line x1="117" y1="188" x2="159" y2="190"/>
      <line x1="84" y1="183" x2="117" y2="188"/>
      <line x1="59" y1="164" x2="84" y2="183"/>
      <line x1="59" y1="164" x2="71" y2="131"/>
      <line x1="84" y1="183" x2="138" y2="217"/>
    </g>

    <g stroke="url(#frameHighlight)" stroke-width="1.15" stroke-linecap="round" stroke-linejoin="round" opacity="0.9">
      <line x1="58" y1="112" x2="103" y2="79"/>
      <line x1="77" y1="77" x2="118" y2="51"/>
      <line x1="77" y1="77" x2="98" y2="111"/>
      <line x1="92" y1="59" x2="136" y2="68"/>
      <line x1="118" y1="51" x2="136" y2="68"/>
      <line x1="136" y1="68" x2="164" y2="40"/>
      <line x1="136" y1="68" x2="123" y2="112"/>
      <line x1="164" y1="40" x2="201" y2="60"/>
      <line x1="164" y1="40" x2="157" y2="96"/>
      <line x1="201" y1="60" x2="221" y2="89"/>
      <line x1="201" y1="60" x2="194" y2="111"/>
      <line x1="221" y1="89" x2="225" y2="122"/>
      <line x1="194" y1="111" x2="225" y2="122"/>
      <line x1="157" y1="96" x2="194" y2="111"/>
      <line x1="157" y1="96" x2="123" y2="112"/>
      <line x1="123" y1="112" x2="98" y2="111"/>
      <line x1="98" y1="111" x2="71" y2="131"/>
      <line x1="71" y1="131" x2="46" y2="139"/>
      <line x1="58" y1="112" x2="46" y2="139"/>
      <line x1="71" y1="131" x2="84" y2="183"/>
      <line x1="98" y1="111" x2="117" y2="188"/>
      <line x1="123" y1="112" x2="138" y2="217"/>
      <line x1="157" y1="96" x2="159" y2="190"/>
      <line x1="194" y1="111" x2="191" y2="182"/>
      <line x1="213" y1="154" x2="191" y2="182"/>
      <line x1="213" y1="154" x2="179" y2="145"/>
      <line x1="179" y1="145" x2="159" y2="190"/>
      <line x1="179" y1="145" x2="123" y2="112"/>
      <line x1="179" y1="145" x2="194" y2="111"/>
      <line x1="117" y1="188" x2="159" y2="190"/>
      <line x1="84" y1="183" x2="117" y2="188"/>
      <line x1="59" y1="164" x2="84" y2="183"/>
      <line x1="59" y1="164" x2="71" y2="131"/>
      <line x1="84" y1="183" x2="138" y2="217"/>
    </g>
  </g>

  <g fill="#111419" stroke="#0A0C10" stroke-width="2.6">
    <path d="M64 105L70 101L76 105L76 112L70 116L64 112V105Z"/>
    <path d="M122 143L130 138L138 143L138 153L130 158L122 153V143Z"/>
    <path d="M170 94L178 89L186 94L186 103L178 108L170 103V94Z"/>
    <path d="M148 108L158 102L168 108L168 119L158 125L148 119V108Z"/>
  </g>
</svg>
